<svg width="391.000000" height="304.000000" viewBox="0 0 391 304" fill="none" xmlns="http://www.w3.org/2000/svg" xmlns:xlink="http://www.w3.org/1999/xlink">
	<desc>
			Created with Pixso.
	</desc>
	<defs>
		<clipPath id="clip14_126">
			<rect id="iMac / Green" width="359.719971" height="304.000000" transform="translate(15.640015 0.000000)" fill="white" fill-opacity="0"/>
		</clipPath>
		<clipPath id="clip13_724">
			<rect id="Mac" width="391.000000" height="304.000000" fill="white" fill-opacity="0"/>
		</clipPath>
		<linearGradient id="paint_linear_14_93_0" x1="195.499954" y1="0.000000" x2="195.499954" y2="247.251190" gradientUnits="userSpaceOnUse">
			<stop stop-color="#295761"/>
			<stop offset="1.000000" stop-color="#183E49"/>
		</linearGradient>
		<linearGradient id="paint_linear_14_94_0" x1="195.580139" y1="65.269165" x2="195.580139" y2="121.053406" gradientUnits="userSpaceOnUse">
			<stop stop-color="#CBDED3"/>
			<stop offset="1.000000" stop-color="#9EB9AD"/>
		</linearGradient>
		<linearGradient id="paint_linear_14_101_0" x1="195.499908" y1="181.178223" x2="195.499908" y2="299.177155" gradientUnits="userSpaceOnUse">
			<stop stop-color="#CAE1D8"/>
			<stop offset="1.000000" stop-color="#9AAEA5"/>
		</linearGradient>
	</defs>
	<g clip-path="url(#clip13_724)">
		<g clip-path="url(#clip14_126)">
			<path id="Union" d="M22.05 0C18.51 0 15.64 2.87 15.64 6.43L15.64 240.82C15.64 244.37 18.51 247.25 22.05 247.25L368.94 247.25C372.48 247.25 375.36 244.37 375.36 240.82L375.36 6.43C375.36 2.87 372.48 0 368.94 0L22.05 0Z" fill="url(#paint_linear_14_93_0)" fill-opacity="1.000000" fill-rule="nonzero"/>
			<path id="" d="M204.1 74.19C206.09 71.78 207.09 69.17 207.09 66.38C207.09 66.17 207.08 65.97 207.07 65.76C207.06 65.6 207.05 65.43 207.03 65.26C205.64 65.34 204.17 65.77 202.61 66.54C201.05 67.33 199.76 68.32 198.74 69.5C196.72 71.85 195.57 74.71 195.57 77.39C195.57 77.76 195.6 78.11 195.64 78.45C198.79 78.71 201.69 77.05 204.1 74.19ZM214.7 114.13C215.83 112.48 216.81 110.69 217.63 108.74C217.98 107.91 218.3 107.05 218.6 106.15C217.2 105.55 215.94 104.71 214.81 103.62C212.33 101.27 211.06 98.3 211.02 94.74C210.98 90.17 213.02 86.61 217.13 84.07C214.83 80.74 211.38 78.89 206.78 78.51C205.08 78.36 203.01 78.73 200.55 79.63C197.96 80.61 196.43 81.09 195.98 81.09C195.37 81.09 193.99 80.68 191.85 79.85C189.69 79.03 187.96 78.62 186.64 78.62C184.22 78.66 181.98 79.3 179.91 80.56C177.83 81.81 176.18 83.52 174.93 85.7C173.34 88.4 172.55 91.62 172.55 95.36C172.55 98.62 173.14 102 174.31 105.48C175.4 108.7 176.8 111.53 178.5 113.96C180.08 116.25 181.4 117.86 182.46 118.8C184.11 120.37 185.77 121.12 187.43 121.04C188.53 121.01 189.96 120.62 191.73 119.89C193.51 119.16 195.16 118.8 196.71 118.8C198.18 118.8 199.79 119.16 201.55 119.89C203.3 120.62 204.8 120.99 206.04 120.99C207.78 120.94 209.4 120.22 210.91 118.8C211.88 117.93 213.15 116.38 214.7 114.13Z" fill="url(#paint_linear_14_94_0)" fill-opacity="1.000000" fill-rule="evenodd"/>
			<path id="Ellipse (Stroke)" d="M356.58 233.71C359.22 233.71 361.36 231.56 361.36 228.92C361.36 226.28 359.22 224.13 356.58 224.13C353.94 224.13 351.81 226.28 351.81 228.92C351.81 231.56 353.94 233.71 356.58 233.71ZM356.58 234.22C359.51 234.22 361.88 231.85 361.88 228.92C361.88 225.99 359.51 223.61 356.58 223.61C353.66 223.61 351.29 225.99 351.29 228.92C351.29 231.85 353.66 234.22 356.58 234.22Z" fill="#647B71" fill-opacity="1.000000" fill-rule="evenodd"/>
			<path id="􀆨" d="M356.58 229.02C356.76 229.02 356.88 228.9 356.88 228.72L356.88 226.5C356.88 226.31 356.76 226.19 356.58 226.19C356.4 226.19 356.28 226.31 356.28 226.5L356.28 228.72C356.28 228.9 356.4 229.02 356.58 229.02ZM356.58 231.65C358.08 231.65 359.31 230.45 359.31 229C359.31 228.23 358.97 227.56 358.48 227.11C358.19 226.83 357.77 227.2 358.07 227.5C358.48 227.88 358.72 228.41 358.73 229C358.73 230.15 357.77 231.08 356.58 231.08C355.4 231.08 354.44 230.15 354.44 229C354.45 228.41 354.69 227.88 355.1 227.5C355.4 227.19 354.97 226.83 354.68 227.11C354.2 227.56 353.86 228.23 353.86 229C353.86 230.45 355.09 231.65 356.58 231.65Z" fill="#CBDED3" fill-opacity="1.000000" fill-rule="nonzero"/>
			<rect id="Rectangle 381" x="152.821289" y="299.177124" width="85.357269" height="1.286102" fill="#647B71" fill-opacity="1.000000"/>
			<path id="Rectangle 380" d="M152.82 300.46L238.17 300.46L238.17 303.35C238.17 303.71 237.89 304 237.53 304L153.46 304C153.1 304 152.82 303.71 152.82 303.35L152.82 300.46Z" fill="#B6CCC3" fill-opacity="1.000000" fill-rule="nonzero"/>
			<path id="Subtract" d="M154.74 181.17C153.68 181.17 152.82 182.04 152.82 183.1L152.82 299.17L238.17 299.17L238.17 183.1C238.17 182.04 237.31 181.17 236.25 181.17L154.74 181.17ZM195.58 214.61C190.66 214.61 186.67 218.61 186.67 223.53L186.67 238.32C186.67 243.25 190.66 247.25 195.58 247.25C200.49 247.25 204.48 243.25 204.48 238.32L204.48 223.53C204.48 218.61 200.49 214.61 195.58 214.61Z" fill="url(#paint_linear_14_101_0)" fill-opacity="1.000000" fill-rule="evenodd"/>
			<ellipse id="Ellipse 28" cx="195.419800" cy="231.094666" rx="5.214500" ry="5.224770" fill="#535962" fill-opacity="1.000000"/>
			<ellipse id="Ellipse 29" cx="195.419678" cy="231.094666" rx="3.610031" ry="3.617142" fill="#252221" fill-opacity="1.000000"/>
			<ellipse id="Ellipse 30" cx="195.419800" cy="231.094604" rx="2.968254" ry="2.974083" fill="#9A9B9D" fill-opacity="1.000000"/>
			<ellipse id="Ellipse 31" cx="195.419800" cy="231.094666" rx="2.005585" ry="2.009521" fill="#252221" fill-opacity="1.000000"/>
			<path id="Subtract" d="" fill="#202021" fill-opacity="1.000000" fill-rule="nonzero"/>
			<path id="Subtract" d="" fill="#202021" fill-opacity="1.000000" fill-rule="nonzero"/>
			<path id="Subtract" d="" fill="#202021" fill-opacity="1.000000" fill-rule="nonzero"/>
			<path id="Subtract" d="" fill="#202021" fill-opacity="1.000000" fill-rule="nonzero"/>
			<path id="Thunderbolt" d="M89.58 223.93L89.49 223.89C89.47 223.63 89.38 223.35 89.23 223.05L89.3 222.89Q89.54 223.15 89.64 223.35L90.15 222.1L88.95 222.66L89.51 220.88L89.72 220.94L89.3 222.28L90.56 221.68L89.83 223.43C89.9 223.41 89.99 223.39 90.08 223.37C90.18 223.36 90.29 223.35 90.41 223.34L90.34 223.51Q89.87 223.67 89.58 223.93ZM99.36 223.93L99.28 223.89C99.25 223.63 99.17 223.35 99.02 223.05L99.09 222.89C99.25 223.06 99.36 223.22 99.42 223.35L99.93 222.1L98.74 222.66L99.3 220.88L99.51 220.94L99.09 222.28L100.35 221.68L99.62 223.43C99.69 223.41 99.77 223.39 99.87 223.37C99.97 223.36 100.08 223.35 100.19 223.34L100.13 223.51C99.81 223.61 99.56 223.75 99.36 223.93Z" fill="#CBDED3" fill-opacity="1.000000" fill-rule="evenodd"/>
		</g>
	</g>
</svg>
